<svg version="1.1" viewBox="0.0 0.0 600.0 371.0" fill="none" stroke="none" stroke-linecap="square" stroke-miterlimit="10" width="600" height="371" xmlns:xlink="http://www.w3.org/1999/xlink" xmlns="http://www.w3.org/2000/svg"><path fill="#ffffff" d="M0 0L600.0 0L600.0 371.0L0 371.0L0 0Z" fill-rule="nonzero"/><path fill="#5891ad" d="M300.0 54.916668C360.1705 54.916668 414.41623 91.1625 437.44247 146.75279C460.46872 202.3431 447.74088 266.3303 405.1939 308.87726L300.0 203.68333Z" fill-rule="nonzero"/><path fill="#1c7685" d="M194.80608 98.48942C222.70525 70.590256 260.54462 54.916668 300.0 54.916668L300.0 203.68333Z" fill-rule="nonzero"/><path fill="#ff6f31" d="M194.80608 308.87726C136.70909 250.78026 136.70909 156.58641 194.80608 98.48942L300.0 203.68333Z" fill-rule="nonzero"/><path fill="#004561" d="M405.1939 308.87726C347.09692 366.97424 252.90308 366.97424 194.80608 308.87726L300.0 203.68333Z" fill-rule="nonzero"/><path fill="#1a1a1a" d="M23.409374 67.84735Q22.815624 68.34735 22.26875 68.550476Q21.7375 68.7536 21.1125 68.7536Q20.08125 68.7536 19.534374 68.2536Q18.9875 67.7536 18.9875 66.97235Q18.9875 66.519226 19.190624 66.144226Q19.39375 65.7536 19.7375 65.53485Q20.08125 65.300476 20.503124 65.1911Q20.8 65.09735 21.440624 65.019226Q22.70625 64.8786 23.315624 64.65985Q23.315624 64.4411 23.315624 64.394226Q23.315624 63.737976 23.01875 63.47235Q22.6125 63.1286 21.815624 63.1286Q21.08125 63.1286 20.721874 63.394226Q20.3625 63.644226 20.190624 64.300476L19.159374 64.15985Q19.3 63.5036 19.628124 63.09735Q19.95625 62.6911 20.565624 62.47235Q21.175 62.2536 21.971874 62.2536Q22.76875 62.2536 23.26875 62.4411Q23.76875 62.6286 24.003124 62.90985Q24.2375 63.1911 24.33125 63.6286Q24.378124 63.894226 24.378124 64.59735L24.378124 66.0036Q24.378124 67.47235 24.440624 67.862976Q24.51875 68.2536 24.721874 68.612976L23.6125 68.612976Q23.45625 68.28485 23.409374 67.84735ZM23.315624 65.487976Q22.7375 65.72235 21.596874 65.894226Q20.940624 65.987976 20.675 66.112976Q20.409374 66.22235 20.253124 66.4411Q20.1125 66.65985 20.1125 66.9411Q20.1125 67.362976 20.425 67.644226Q20.753124 67.925476 21.3625 67.925476Q21.971874 67.925476 22.440624 67.65985Q22.925 67.394226 23.14375 66.925476Q23.315624 66.5661 23.315624 65.8786L23.315624 65.487976ZM26.346874 68.612976L26.346874 62.394226L27.284374 62.394226L27.284374 63.269226Q27.971874 62.2536 29.26875 62.2536Q29.83125 62.2536 30.3 62.456726Q30.784374 62.65985 31.01875 62.987976Q31.253124 63.3161 31.346874 63.7536Q31.39375 64.050476 31.39375 64.78485L31.39375 68.612976L30.346874 68.612976L30.346874 64.831726Q30.346874 64.175476 30.221874 63.862976Q30.096874 63.550476 29.784374 63.362976Q29.471874 63.15985 29.05 63.15985Q28.378124 63.15985 27.878124 63.59735Q27.39375 64.019226 27.39375 65.206726L27.39375 68.612976L26.346874 68.612976ZM32.95625 65.5036Q32.95625 63.769226 33.909374 62.9411Q34.70625 62.2536 35.8625 62.2536Q37.14375 62.2536 37.95625 63.09735Q38.784374 63.925476 38.784374 65.40985Q38.784374 66.612976 38.425 67.300476Q38.065624 67.987976 37.3625 68.3786Q36.675 68.7536 35.8625 68.7536Q34.565624 68.7536 33.753124 67.925476Q32.95625 67.081726 32.95625 65.5036ZM34.034374 65.5036Q34.034374 66.6911 34.55 67.28485Q35.08125 67.8786 35.8625 67.8786Q36.659374 67.8786 37.175 67.28485Q37.690624 66.6911 37.690624 65.47235Q37.690624 64.3161 37.159374 63.72235Q36.64375 63.1286 35.8625 63.1286Q35.08125 63.1286 34.55 63.72235Q34.034374 64.300476 34.034374 65.5036ZM42.64375 67.675476L42.8 68.59735Q42.346874 68.6911 42.003124 68.6911Q41.425 68.6911 41.1125 68.519226Q40.8 68.331726 40.659374 68.03485Q40.534374 67.737976 40.534374 66.78485L40.534374 63.206726L39.76875 63.206726L39.76875 62.394226L40.534374 62.394226L40.534374 60.84735L41.58125 60.22235L41.58125 62.394226L42.64375 62.394226L42.64375 63.206726L41.58125 63.206726L41.58125 66.84735Q41.58125 67.300476 41.628124 67.425476Q41.690624 67.550476 41.815624 67.6286Q41.940624 67.706726 42.175 67.706726Q42.3625 67.706726 42.64375 67.675476ZM43.346874 68.612976L43.346874 60.019226L44.39375 60.019226L44.39375 63.09735Q45.128124 62.2536 46.253124 62.2536Q46.95625 62.2536 47.45625 62.53485Q47.971874 62.800476 48.190624 63.28485Q48.409374 63.7536 48.409374 64.675476L48.409374 68.612976L47.3625 68.612976L47.3625 64.675476Q47.3625 63.8786 47.01875 63.519226Q46.675 63.15985 46.05 63.15985Q45.58125 63.15985 45.159374 63.40985Q44.753124 63.644226 44.565624 64.0661Q44.39375 64.47235 44.39375 65.206726L44.39375 68.612976L43.346874 68.612976ZM54.596874 66.612976L55.690624 66.737976Q55.440624 67.6911 54.7375 68.22235Q54.034374 68.7536 52.95625 68.7536Q51.596874 68.7536 50.784374 67.90985Q49.9875 67.0661 49.9875 65.550476Q49.9875 63.987976 50.8 63.1286Q51.6125 62.2536 52.89375 62.2536Q54.14375 62.2536 54.925 63.09735Q55.721874 63.9411 55.721874 65.487976Q55.721874 65.581726 55.721874 65.769226L51.08125 65.769226Q51.14375 66.800476 51.659374 67.34735Q52.175 67.8786 52.95625 67.8786Q53.534374 67.8786 53.940624 67.581726Q54.3625 67.269226 54.596874 66.612976ZM51.14375 64.90985L54.6125 64.90985Q54.55 64.112976 54.221874 63.72235Q53.70625 63.112976 52.909374 63.112976Q52.175 63.112976 51.675 63.59735Q51.190624 64.081726 51.14375 64.90985ZM57.33125 68.612976L57.33125 62.394226L58.284374 62.394226L58.284374 63.331726Q58.64375 62.675476 58.940624 62.47235Q59.253124 62.2536 59.628124 62.2536Q60.159374 62.2536 60.70625 62.581726L60.346874 63.5661Q59.95625 63.331726 59.58125 63.331726Q59.221874 63.331726 58.940624 63.550476Q58.675 63.7536 58.565624 64.1286Q58.378124 64.6911 58.378124 65.34735L58.378124 68.612976L57.33125 68.612976Z" fill-rule="nonzero"/><path fill="#9e9e9e" d="M23.01875 85.612976L21.971874 85.612976L21.971874 78.894226Q21.58125 79.2536 20.95625 79.6286Q20.346874 79.987976 19.8625 80.15985L19.8625 79.144226Q20.7375 78.72235 21.39375 78.144226Q22.065624 77.550476 22.346874 76.987976L23.01875 76.987976L23.01875 85.612976ZM31.596874 84.59735L31.596874 85.612976L25.909374 85.612976Q25.909374 85.237976 26.034374 84.8786Q26.253124 84.300476 26.721874 83.737976Q27.20625 83.175476 28.1125 82.4411Q29.51875 81.28485 30.003124 80.612976Q30.503124 79.9411 30.503124 79.34735Q30.503124 78.72235 30.05 78.300476Q29.596874 77.862976 28.878124 77.862976Q28.1125 77.862976 27.659374 78.3161Q27.20625 78.769226 27.190624 79.581726L26.1125 79.47235Q26.221874 78.2536 26.940624 77.6286Q27.675 76.987976 28.909374 76.987976Q30.14375 76.987976 30.8625 77.675476Q31.58125 78.362976 31.58125 79.3786Q31.58125 79.894226 31.3625 80.394226Q31.159374 80.8786 30.659374 81.4411Q30.175 81.987976 29.05 82.9411Q28.096874 83.737976 27.815624 84.03485Q27.55 84.3161 27.378124 84.59735L31.596874 84.59735ZM33.64375 85.612976L33.64375 84.40985L34.846874 84.40985L34.846874 85.612976L33.64375 85.612976ZM36.05 83.362976L37.159374 83.269226Q37.284374 84.081726 37.721874 84.487976Q38.175 84.894226 38.815624 84.894226Q39.565624 84.894226 40.096874 84.3161Q40.628124 83.737976 40.628124 82.800476Q40.628124 81.894226 40.1125 81.3786Q39.6125 80.84735 38.784374 80.84735Q38.284374 80.84735 37.8625 81.081726Q37.45625 81.3161 37.221874 81.675476L36.2375 81.550476L37.065624 77.144226L41.346874 77.144226L41.346874 78.144226L37.909374 78.144226L37.45625 80.456726Q38.221874 79.90985 39.065624 79.90985Q40.190624 79.90985 40.95625 80.6911Q41.7375 81.47235 41.7375 82.706726Q41.7375 83.862976 41.065624 84.72235Q40.2375 85.7536 38.815624 85.7536Q37.64375 85.7536 36.89375 85.09735Q36.159374 84.4411 36.05 83.362976ZM43.253124 79.081726Q43.253124 78.15985 43.70625 77.519226Q44.175 76.8786 45.05 76.8786Q45.8625 76.8786 46.39375 77.456726Q46.925 78.03485 46.925 79.144226Q46.925 80.237976 46.378124 80.831726Q45.846874 81.40985 45.065624 81.40985Q44.284374 81.40985 43.76875 80.831726Q43.253124 80.2536 43.253124 79.081726ZM45.08125 77.59735Q44.690624 77.59735 44.425 77.9411Q44.175 78.28485 44.175 79.1911Q44.175 80.019226 44.425 80.362976Q44.690624 80.6911 45.08125 80.6911Q45.4875 80.6911 45.7375 80.34735Q46.003124 80.0036 46.003124 79.112976Q46.003124 78.269226 45.7375 77.9411Q45.471874 77.59735 45.08125 77.59735ZM45.08125 85.925476L49.784374 76.8786L50.64375 76.8786L45.95625 85.925476L45.08125 85.925476ZM48.8 83.59735Q48.8 82.675476 49.253124 82.03485Q49.721874 81.394226 50.6125 81.394226Q51.425 81.394226 51.95625 81.97235Q52.4875 82.53485 52.4875 83.65985Q52.4875 84.7536 51.940624 85.34735Q51.409374 85.925476 50.6125 85.925476Q49.846874 85.925476 49.315624 85.34735Q48.8 84.769226 48.8 83.59735ZM50.64375 82.112976Q50.2375 82.112976 49.971874 82.456726Q49.721874 82.800476 49.721874 83.706726Q49.721874 84.519226 49.9875 84.862976Q50.253124 85.206726 50.64375 85.206726Q51.034374 85.206726 51.3 84.862976Q51.565624 84.519226 51.565624 83.612976Q51.565624 82.78485 51.3 82.456726Q51.034374 82.112976 50.64375 82.112976Z" fill-rule="nonzero"/><path stroke="#757575" stroke-width="1.0" stroke-linecap="butt" d="M18.55 73.112976L145.23334 73.112976L245.91599 73.112976" fill-rule="nonzero"/><path fill="#9e9e9e" d="M247.91599 73.112976C247.91599 72.00841 247.02055 71.112976 245.91599 71.112976C244.81142 71.112976 243.91599 72.00841 243.91599 73.112976C243.91599 74.217545 244.81142 75.112976 245.91599 75.112976C247.02055 75.112976 247.91599 74.217545 247.91599 73.112976" fill-rule="nonzero"/><path fill="#1a1a1a" d="M19.596874 199.18333L19.596874 193.77708L18.659374 193.77708L18.659374 192.96458L19.596874 192.96458L19.596874 192.29271Q19.596874 191.66771 19.70625 191.37083Q19.8625 190.94896 20.2375 190.69896Q20.628124 190.44896 21.315624 190.44896Q21.76875 190.44896 22.3 190.55833L22.14375 191.46458Q21.815624 191.41771 21.51875 191.41771Q21.034374 191.41771 20.83125 191.62083Q20.64375 191.82396 20.64375 192.38646L20.64375 192.96458L21.8625 192.96458L21.8625 193.77708L20.64375 193.77708L20.64375 199.18333L19.596874 199.18333ZM26.409374 198.41771Q25.815624 198.91771 25.26875 199.12083Q24.7375 199.32396 24.1125 199.32396Q23.08125 199.32396 22.534374 198.82396Q21.9875 198.32396 21.9875 197.54271Q21.9875 197.08958 22.190624 196.71458Q22.39375 196.32396 22.7375 196.10521Q23.08125 195.87083 23.503124 195.76146Q23.8 195.66771 24.440624 195.58958Q25.70625 195.44896 26.315624 195.23021Q26.315624 195.01146 26.315624 194.96458Q26.315624 194.30833 26.01875 194.04271Q25.6125 193.69896 24.815624 193.69896Q24.08125 193.69896 23.721874 193.96458Q23.3625 194.21458 23.190624 194.87083L22.159374 194.73021Q22.3 194.07396 22.628124 193.66771Q22.95625 193.26146 23.565624 193.04271Q24.175 192.82396 24.971874 192.82396Q25.76875 192.82396 26.26875 193.01146Q26.76875 193.19896 27.003124 193.48021Q27.2375 193.76146 27.33125 194.19896Q27.378124 194.46458 27.378124 195.16771L27.378124 196.57396Q27.378124 198.04271 27.440624 198.43333Q27.51875 198.82396 27.721874 199.18333L26.6125 199.18333Q26.45625 198.85521 26.409374 198.41771ZM26.315624 196.05833Q25.7375 196.29271 24.596874 196.46458Q23.940624 196.55833 23.675 196.68333Q23.409374 196.79271 23.253124 197.01146Q23.1125 197.23021 23.1125 197.51146Q23.1125 197.93333 23.425 198.21458Q23.753124 198.49583 24.3625 198.49583Q24.971874 198.49583 25.440624 198.23021Q25.925 197.96458 26.14375 197.49583Q26.315624 197.13646 26.315624 196.44896L26.315624 196.05833ZM29.346874 199.18333L29.346874 192.96458L30.284374 192.96458L30.284374 193.83958Q30.58125 193.37083 31.065624 193.10521Q31.55 192.82396 32.175 192.82396Q32.8625 192.82396 33.3 193.10521Q33.753124 193.38646 33.925 193.90208Q34.675 192.82396 35.846874 192.82396Q36.784374 192.82396 37.26875 193.33958Q37.76875 193.83958 37.76875 194.91771L37.76875 199.18333L36.721874 199.18333L36.721874 195.26146Q36.721874 194.63646 36.6125 194.35521Q36.51875 194.07396 36.253124 193.90208Q35.9875 193.73021 35.6125 193.73021Q34.95625 193.73021 34.51875 194.16771Q34.096874 194.60521 34.096874 195.57396L34.096874 199.18333L33.034374 199.18333L33.034374 195.13646Q33.034374 194.43333 32.76875 194.08958Q32.51875 193.73021 31.940624 193.73021Q31.4875 193.73021 31.1125 193.96458Q30.7375 194.19896 30.565624 194.65208Q30.39375 195.10521 30.39375 195.94896L30.39375 199.18333L29.346874 199.18333ZM40.346874 191.80833L40.346874 190.58958L41.409374 190.58958L41.409374 191.80833L40.346874 191.80833ZM40.346874 199.18333L40.346874 192.96458L41.409374 192.96458L41.409374 199.18333L40.346874 199.18333ZM43.315624 199.18333L43.315624 190.58958L44.378124 190.58958L44.378124 199.18333L43.315624 199.18333ZM46.3 201.57396L46.175 200.58958Q46.51875 200.68333 46.784374 200.68333Q47.128124 200.68333 47.33125 200.55833Q47.55 200.44896 47.690624 200.24583Q47.784374 200.07396 48.01875 199.44896Q48.034374 199.37083 48.1125 199.19896L45.7375 192.96458L46.878124 192.96458L48.175 196.55833Q48.425 197.24583 48.628124 198.01146Q48.815624 197.27708 49.065624 196.58958L50.39375 192.96458L51.440624 192.96458L49.08125 199.29271Q48.690624 200.30833 48.4875 200.69896Q48.20625 201.23021 47.83125 201.46458Q47.471874 201.71458 46.971874 201.71458Q46.675 201.71458 46.3 201.57396ZM50.55 199.32396L53.034374 190.44896L53.878124 190.44896L51.39375 199.32396L50.55 199.32396ZM54.596874 199.18333L54.596874 193.77708L53.659374 193.77708L53.659374 192.96458L54.596874 192.96458L54.596874 192.29271Q54.596874 191.66771 54.70625 191.37083Q54.8625 190.94896 55.2375 190.69896Q55.628124 190.44896 56.315624 190.44896Q56.76875 190.44896 57.3 190.55833L57.14375 191.46458Q56.815624 191.41771 56.51875 191.41771Q56.034374 191.41771 55.83125 191.62083Q55.64375 191.82396 55.64375 192.38646L55.64375 192.96458L56.8625 192.96458L56.8625 193.77708L55.64375 193.77708L55.64375 199.18333L54.596874 199.18333ZM57.33125 199.18333L57.33125 192.96458L58.284374 192.96458L58.284374 193.90208Q58.64375 193.24583 58.940624 193.04271Q59.253124 192.82396 59.628124 192.82396Q60.159374 192.82396 60.70625 193.15208L60.346874 194.13646Q59.95625 193.90208 59.58125 193.90208Q59.221874 193.90208 58.940624 194.12083Q58.675 194.32396 58.565624 194.69896Q58.378124 195.26146 58.378124 195.91771L58.378124 199.18333L57.33125 199.18333ZM61.346874 191.80833L61.346874 190.58958L62.409374 190.58958L62.409374 191.80833L61.346874 191.80833ZM61.346874 199.18333L61.346874 192.96458L62.409374 192.96458L62.409374 199.18333L61.346874 199.18333ZM68.59688 197.18333L69.69063 197.30833Q69.44063 198.26146 68.7375 198.79271Q68.03438 199.32396 66.95625 199.32396Q65.59688 199.32396 64.78438 198.48021Q63.9875 197.63646 63.9875 196.12083Q63.9875 194.55833 64.8 193.69896Q65.6125 192.82396 66.89375 192.82396Q68.14375 192.82396 68.925 193.66771Q69.72188 194.51146 69.72188 196.05833Q69.72188 196.15208 69.72188 196.33958L65.08125 196.33958Q65.14375 197.37083 65.65938 197.91771Q66.175 198.44896 66.95625 198.44896Q67.53438 198.44896 67.94063 198.15208Q68.3625 197.83958 68.59688 197.18333ZM65.14375 195.48021L68.6125 195.48021Q68.55 194.68333 68.22188 194.29271Q67.70625 193.68333 66.90938 193.68333Q66.175 193.68333 65.675 194.16771Q65.19063 194.65208 65.14375 195.48021ZM71.34688 199.18333L71.34688 192.96458L72.28438 192.96458L72.28438 193.83958Q72.97188 192.82396 74.26875 192.82396Q74.83125 192.82396 75.3 193.02708Q75.78438 193.23021 76.01875 193.55833Q76.25313 193.88646 76.34688 194.32396Q76.39375 194.62083 76.39375 195.35521L76.39375 199.18333L75.34688 199.18333L75.34688 195.40208Q75.34688 194.74583 75.22188 194.43333Q75.09688 194.12083 74.78438 193.93333Q74.47188 193.73021 74.05 193.73021Q73.37813 193.73021 72.87813 194.16771Q72.39375 194.58958 72.39375 195.77708L72.39375 199.18333L71.34688 199.18333ZM82.37813 199.18333L82.37813 198.40208Q81.78438 199.32396 80.64375 199.32396Q79.89375 199.32396 79.26875 198.91771Q78.64375 198.49583 78.3 197.76146Q77.95625 197.02708 77.95625 196.07396Q77.95625 195.15208 78.26875 194.38646Q78.58125 193.62083 79.20625 193.23021Q79.83125 192.82396 80.59688 192.82396Q81.15938 192.82396 81.59688 193.05833Q82.03438 193.29271 82.31563 193.66771L82.31563 190.58958L83.3625 190.58958L83.3625 199.18333L82.37813 199.18333ZM79.05 196.07396Q79.05 197.27708 79.55 197.87083Q80.05 198.44896 80.7375 198.44896Q81.425 198.44896 81.90938 197.88646Q82.39375 197.32396 82.39375 196.16771Q82.39375 194.88646 81.89375 194.29271Q81.40938 193.69896 80.69063 193.69896Q79.9875 193.69896 79.51875 194.27708Q79.05 194.83958 79.05 196.07396ZM84.925 197.32396L85.95625 197.16771Q86.05 197.79271 86.44063 198.12083Q86.84688 198.44896 87.58125 198.44896Q88.3 198.44896 88.64375 198.16771Q89.00313 197.87083 89.00313 197.46458Q89.00313 197.10521 88.69063 196.90208Q88.47188 196.76146 87.6125 196.54271Q86.45625 196.24583 86.00313 196.04271Q85.56563 195.82396 85.33125 195.44896Q85.09688 195.07396 85.09688 194.60521Q85.09688 194.19896 85.28438 193.83958Q85.47188 193.48021 85.8 193.24583Q86.05 193.07396 86.47188 192.94896Q86.89375 192.82396 87.39375 192.82396Q88.1125 192.82396 88.65938 193.04271Q89.22188 193.24583 89.4875 193.60521Q89.75313 193.96458 89.84688 194.55833L88.81563 194.69896Q88.75313 194.23021 88.40938 193.96458Q88.08125 193.68333 87.45625 193.68333Q86.7375 193.68333 86.425 193.93333Q86.1125 194.16771 86.1125 194.49583Q86.1125 194.69896 86.2375 194.85521Q86.37813 195.02708 86.64375 195.13646Q86.8 195.19896 87.58125 195.40208Q88.70625 195.71458 89.14375 195.90208Q89.58125 196.08958 89.83125 196.44896Q90.08125 196.80833 90.08125 197.35521Q90.08125 197.88646 89.76875 198.35521Q89.47188 198.80833 88.89375 199.07396Q88.31563 199.32396 87.58125 199.32396Q86.3625 199.32396 85.72188 198.82396Q85.09688 198.30833 84.925 197.32396Z" fill-rule="nonzero"/><path fill="#9e9e9e" d="M24.596874 215.16771L24.596874 216.18333L18.909374 216.18333Q18.909374 215.80833 19.034374 215.44896Q19.253124 214.87083 19.721874 214.30833Q20.20625 213.74583 21.1125 213.01146Q22.51875 211.85521 23.003124 211.18333Q23.503124 210.51146 23.503124 209.91771Q23.503124 209.29271 23.05 208.87083Q22.596874 208.43333 21.878124 208.43333Q21.1125 208.43333 20.659374 208.88646Q20.20625 209.33958 20.190624 210.15208L19.1125 210.04271Q19.221874 208.82396 19.940624 208.19896Q20.675 207.55833 21.909374 207.55833Q23.14375 207.55833 23.8625 208.24583Q24.58125 208.93333 24.58125 209.94896Q24.58125 210.46458 24.3625 210.96458Q24.159374 211.44896 23.659374 212.01146Q23.175 212.55833 22.05 213.51146Q21.096874 214.30833 20.815624 214.60521Q20.55 214.88646 20.378124 215.16771L24.596874 215.16771ZM26.05 213.93333L27.159374 213.83958Q27.284374 214.65208 27.721874 215.05833Q28.175 215.46458 28.815624 215.46458Q29.565624 215.46458 30.096874 214.88646Q30.628124 214.30833 30.628124 213.37083Q30.628124 212.46458 30.1125 211.94896Q29.6125 211.41771 28.784374 211.41771Q28.284374 211.41771 27.8625 211.65208Q27.45625 211.88646 27.221874 212.24583L26.2375 212.12083L27.065624 207.71458L31.346874 207.71458L31.346874 208.71458L27.909374 208.71458L27.45625 211.02708Q28.221874 210.48021 29.065624 210.48021Q30.190624 210.48021 30.95625 211.26146Q31.7375 212.04271 31.7375 213.27708Q31.7375 214.43333 31.065624 215.29271Q30.2375 216.32396 28.815624 216.32396Q27.64375 216.32396 26.89375 215.66771Q26.159374 215.01146 26.05 213.93333ZM33.64375 216.18333L33.64375 214.98021L34.846874 214.98021L34.846874 216.18333L33.64375 216.18333ZM36.05 211.94896Q36.05 210.41771 36.3625 209.49583Q36.675 208.55833 37.284374 208.05833Q37.909374 207.55833 38.846874 207.55833Q39.534374 207.55833 40.05 207.83958Q40.58125 208.12083 40.925 208.65208Q41.26875 209.16771 41.45625 209.91771Q41.64375 210.66771 41.64375 211.94896Q41.64375 213.46458 41.33125 214.38646Q41.034374 215.30833 40.409374 215.82396Q39.8 216.32396 38.846874 216.32396Q37.6125 216.32396 36.89375 215.43333Q36.05 214.37083 36.05 211.94896ZM37.128124 211.94896Q37.128124 214.05833 37.628124 214.76146Q38.128124 215.46458 38.846874 215.46458Q39.58125 215.46458 40.065624 214.76146Q40.565624 214.05833 40.565624 211.94896Q40.565624 209.82396 40.065624 209.13646Q39.58125 208.43333 38.83125 208.43333Q38.1125 208.43333 37.675 209.04271Q37.128124 209.82396 37.128124 211.94896ZM43.253124 209.65208Q43.253124 208.73021 43.70625 208.08958Q44.175 207.44896 45.05 207.44896Q45.8625 207.44896 46.39375 208.02708Q46.925 208.60521 46.925 209.71458Q46.925 210.80833 46.378124 211.40208Q45.846874 211.98021 45.065624 211.98021Q44.284374 211.98021 43.76875 211.40208Q43.253124 210.82396 43.253124 209.65208ZM45.08125 208.16771Q44.690624 208.16771 44.425 208.51146Q44.175 208.85521 44.175 209.76146Q44.175 210.58958 44.425 210.93333Q44.690624 211.26146 45.08125 211.26146Q45.4875 211.26146 45.7375 210.91771Q46.003124 210.57396 46.003124 209.68333Q46.003124 208.83958 45.7375 208.51146Q45.471874 208.16771 45.08125 208.16771ZM45.08125 216.49583L49.784374 207.44896L50.64375 207.44896L45.95625 216.49583L45.08125 216.49583ZM48.8 214.16771Q48.8 213.24583 49.253124 212.60521Q49.721874 211.96458 50.6125 211.96458Q51.425 211.96458 51.95625 212.54271Q52.4875 213.10521 52.4875 214.23021Q52.4875 215.32396 51.940624 215.91771Q51.409374 216.49583 50.6125 216.49583Q49.846874 216.49583 49.315624 215.91771Q48.8 215.33958 48.8 214.16771ZM50.64375 212.68333Q50.2375 212.68333 49.971874 213.02708Q49.721874 213.37083 49.721874 214.27708Q49.721874 215.08958 49.9875 215.43333Q50.253124 215.77708 50.64375 215.77708Q51.034374 215.77708 51.3 215.43333Q51.565624 215.08958 51.565624 214.18333Q51.565624 213.35521 51.3 213.02708Q51.034374 212.68333 50.64375 212.68333Z" fill-rule="nonzero"/><path stroke="#757575" stroke-width="1.0" stroke-linecap="butt" d="M18.55 203.68333L145.23334 203.68333L158.67166 203.68333" fill-rule="nonzero"/><path fill="#9e9e9e" d="M160.67166 203.68333C160.67166 202.57877 159.77623 201.68333 158.67166 201.68333C157.5671 201.68333 156.67166 202.57877 156.67166 203.68333C156.67166 204.7879 157.5671 205.68333 158.67166 205.68333C159.77623 205.68333 160.67166 204.7879 160.67166 203.68333" fill-rule="nonzero"/><path fill="#1a1a1a" d="M543.825 143.23994L544.85626 143.0837Q544.95 143.7087 545.34064 144.03682Q545.7469 144.36494 546.48126 144.36494Q547.2 144.36494 547.54376 144.0837Q547.90314 143.78682 547.90314 143.38057Q547.90314 143.0212 547.59064 142.81807Q547.3719 142.67744 546.5125 142.4587Q545.35626 142.16182 544.90314 141.9587Q544.46564 141.73994 544.23126 141.36494Q543.9969 140.98994 543.9969 140.5212Q543.9969 140.11494 544.1844 139.75557Q544.3719 139.3962 544.7 139.16182Q544.95 138.98994 545.3719 138.86494Q545.79376 138.73994 546.29376 138.73994Q547.0125 138.73994 547.5594 138.9587Q548.1219 139.16182 548.3875 139.5212Q548.65314 139.88057 548.7469 140.47432L547.71564 140.61494Q547.65314 140.1462 547.3094 139.88057Q546.98126 139.59932 546.35626 139.59932Q545.6375 139.59932 545.325 139.84932Q545.0125 140.0837 545.0125 140.41182Q545.0125 140.61494 545.1375 140.7712Q545.27814 140.94307 545.54376 141.05244Q545.7 141.11494 546.48126 141.31807Q547.60626 141.63057 548.04376 141.81807Q548.48126 142.00557 548.73126 142.36494Q548.98126 142.72432 548.98126 143.2712Q548.98126 143.80244 548.66876 144.2712Q548.3719 144.72432 547.79376 144.98994Q547.21564 145.23994 546.48126 145.23994Q545.2625 145.23994 544.6219 144.73994Q543.9969 144.22432 543.825 143.23994ZM553.54376 144.16182L553.7 145.0837Q553.2469 145.17744 552.90314 145.17744Q552.325 145.17744 552.0125 145.00557Q551.7 144.81807 551.5594 144.5212Q551.4344 144.22432 551.4344 143.2712L551.4344 139.69307L550.66876 139.69307L550.66876 138.88057L551.4344 138.88057L551.4344 137.3337L552.48126 136.7087L552.48126 138.88057L553.54376 138.88057L553.54376 139.69307L552.48126 139.69307L552.48126 143.3337Q552.48126 143.78682 552.52814 143.91182Q552.59064 144.03682 552.71564 144.11494Q552.84064 144.19307 553.075 144.19307Q553.2625 144.19307 553.54376 144.16182ZM554.23126 145.09932L554.23126 138.88057L555.1844 138.88057L555.1844 139.81807Q555.54376 139.16182 555.84064 138.9587Q556.15314 138.73994 556.52814 138.73994Q557.0594 138.73994 557.60626 139.06807L557.2469 140.05244Q556.85626 139.81807 556.48126 139.81807Q556.1219 139.81807 555.84064 140.03682Q555.575 140.23994 555.46564 140.61494Q555.27814 141.17744 555.27814 141.8337L555.27814 145.09932L554.23126 145.09932ZM562.4969 143.09932L563.59064 143.22432Q563.34064 144.17744 562.6375 144.7087Q561.9344 145.23994 560.85626 145.23994Q559.4969 145.23994 558.6844 144.3962Q557.8875 143.55244 557.8875 142.03682Q557.8875 140.47432 558.7 139.61494Q559.5125 138.73994 560.79376 138.73994Q562.04376 138.73994 562.825 139.5837Q563.6219 140.42744 563.6219 141.97432Q563.6219 142.06807 563.6219 142.25557L558.98126 142.25557Q559.04376 143.28682 559.5594 143.8337Q560.075 144.36494 560.85626 144.36494Q561.4344 144.36494 561.84064 144.06807Q562.2625 143.75557 562.4969 143.09932ZM559.04376 141.3962L562.5125 141.3962Q562.45 140.59932 562.1219 140.2087Q561.60626 139.59932 560.8094 139.59932Q560.075 139.59932 559.575 140.0837Q559.09064 140.56807 559.04376 141.3962ZM569.4969 143.09932L570.59064 143.22432Q570.34064 144.17744 569.6375 144.7087Q568.9344 145.23994 567.85626 145.23994Q566.4969 145.23994 565.6844 144.3962Q564.8875 143.55244 564.8875 142.03682Q564.8875 140.47432 565.7 139.61494Q566.5125 138.73994 567.79376 138.73994Q569.04376 138.73994 569.825 139.5837Q570.6219 140.42744 570.6219 141.97432Q570.6219 142.06807 570.6219 142.25557L565.98126 142.25557Q566.04376 143.28682 566.5594 143.8337Q567.075 144.36494 567.85626 144.36494Q568.4344 144.36494 568.84064 144.06807Q569.2625 143.75557 569.4969 143.09932ZM566.04376 141.3962L569.5125 141.3962Q569.45 140.59932 569.1219 140.2087Q568.60626 139.59932 567.8094 139.59932Q567.075 139.59932 566.575 140.0837Q566.09064 140.56807 566.04376 141.3962ZM574.54376 144.16182L574.7 145.0837Q574.2469 145.17744 573.90314 145.17744Q573.325 145.17744 573.0125 145.00557Q572.7 144.81807 572.5594 144.5212Q572.4344 144.22432 572.4344 143.2712L572.4344 139.69307L571.66876 139.69307L571.66876 138.88057L572.4344 138.88057L572.4344 137.3337L573.48126 136.7087L573.48126 138.88057L574.54376 138.88057L574.54376 139.69307L573.48126 139.69307L573.48126 143.3337Q573.48126 143.78682 573.52814 143.91182Q573.59064 144.03682 573.71564 144.11494Q573.84064 144.19307 574.075 144.19307Q574.2625 144.19307 574.54376 144.16182ZM574.825 143.23994L575.85626 143.0837Q575.95 143.7087 576.34064 144.03682Q576.7469 144.36494 577.48126 144.36494Q578.2 144.36494 578.54376 144.0837Q578.90314 143.78682 578.90314 143.38057Q578.90314 143.0212 578.59064 142.81807Q578.3719 142.67744 577.5125 142.4587Q576.35626 142.16182 575.90314 141.9587Q575.46564 141.73994 575.23126 141.36494Q574.9969 140.98994 574.9969 140.5212Q574.9969 140.11494 575.1844 139.75557Q575.3719 139.3962 575.7 139.16182Q575.95 138.98994 576.3719 138.86494Q576.79376 138.73994 577.29376 138.73994Q578.0125 138.73994 578.5594 138.9587Q579.1219 139.16182 579.3875 139.5212Q579.65314 139.88057 579.7469 140.47432L578.71564 140.61494Q578.65314 140.1462 578.3094 139.88057Q577.98126 139.59932 577.35626 139.59932Q576.6375 139.59932 576.325 139.84932Q576.0125 140.0837 576.0125 140.41182Q576.0125 140.61494 576.1375 140.7712Q576.27814 140.94307 576.54376 141.05244Q576.7 141.11494 577.48126 141.31807Q578.60626 141.63057 579.04376 141.81807Q579.48126 142.00557 579.73126 142.36494Q579.98126 142.72432 579.98126 143.2712Q579.98126 143.80244 579.66876 144.2712Q579.3719 144.72432 578.79376 144.98994Q578.21564 145.23994 577.48126 145.23994Q576.2625 145.23994 575.6219 144.73994Q574.9969 144.22432 574.825 143.23994Z" fill-rule="nonzero"/><path fill="#9e9e9e" d="M546.95 159.8337L548.0125 159.69307Q548.1844 160.5837 548.6219 160.98994Q549.0594 161.38057 549.6844 161.38057Q550.4344 161.38057 550.95 160.86494Q551.46564 160.34932 551.46564 159.5837Q551.46564 158.86494 550.98126 158.3962Q550.5125 157.91182 549.77814 157.91182Q549.48126 157.91182 549.02814 158.03682L549.15314 157.09932Q549.2625 157.11494 549.325 157.11494Q549.9969 157.11494 550.52814 156.7712Q551.075 156.41182 551.075 155.67744Q551.075 155.09932 550.6844 154.72432Q550.29376 154.3337 549.66876 154.3337Q549.0594 154.3337 548.6375 154.72432Q548.23126 155.11494 548.1219 155.88057L547.0594 155.69307Q547.2469 154.6462 547.9344 154.06807Q548.6219 153.47432 549.6375 153.47432Q550.34064 153.47432 550.9344 153.78682Q551.52814 154.0837 551.84064 154.59932Q552.15314 155.11494 552.15314 155.7087Q552.15314 156.25557 551.85626 156.72432Q551.5594 157.17744 550.98126 157.44307Q551.73126 157.61494 552.15314 158.17744Q552.575 158.72432 552.575 159.56807Q552.575 160.69307 551.7469 161.47432Q550.9344 162.25557 549.6844 162.25557Q548.5594 162.25557 547.8094 161.5837Q547.0594 160.8962 546.95 159.8337ZM554.0125 154.63057L554.0125 153.61494L559.575 153.61494L559.575 154.44307Q558.7625 155.31807 557.95 156.7712Q557.15314 158.2087 556.71564 159.73994Q556.3875 160.81807 556.3094 162.09932L555.21564 162.09932Q555.23126 161.0837 555.60626 159.6462Q555.9969 158.2087 556.7 156.88057Q557.41876 155.55244 558.23126 154.63057L554.0125 154.63057ZM561.54376 162.09932L561.54376 160.8962L562.7469 160.8962L562.7469 162.09932L561.54376 162.09932ZM563.95 159.84932L565.0594 159.75557Q565.1844 160.56807 565.6219 160.97432Q566.075 161.38057 566.71564 161.38057Q567.46564 161.38057 567.9969 160.80244Q568.52814 160.22432 568.52814 159.28682Q568.52814 158.38057 568.0125 157.86494Q567.5125 157.3337 566.6844 157.3337Q566.1844 157.3337 565.7625 157.56807Q565.35626 157.80244 565.1219 158.16182L564.1375 158.03682L564.96564 153.63057L569.2469 153.63057L569.2469 154.63057L565.8094 154.63057L565.35626 156.94307Q566.1219 156.3962 566.96564 156.3962Q568.09064 156.3962 568.85626 157.17744Q569.6375 157.9587 569.6375 159.19307Q569.6375 160.34932 568.96564 161.2087Q568.1375 162.23994 566.71564 162.23994Q565.54376 162.23994 564.79376 161.5837Q564.0594 160.92744 563.95 159.84932ZM571.15314 155.56807Q571.15314 154.6462 571.60626 154.00557Q572.075 153.36494 572.95 153.36494Q573.7625 153.36494 574.29376 153.94307Q574.825 154.5212 574.825 155.63057Q574.825 156.72432 574.27814 157.31807Q573.7469 157.8962 572.96564 157.8962Q572.1844 157.8962 571.66876 157.31807Q571.15314 156.73994 571.15314 155.56807ZM572.98126 154.0837Q572.59064 154.0837 572.325 154.42744Q572.075 154.7712 572.075 155.67744Q572.075 156.50557 572.325 156.84932Q572.59064 157.17744 572.98126 157.17744Q573.3875 157.17744 573.6375 156.8337Q573.90314 156.48994 573.90314 155.59932Q573.90314 154.75557 573.6375 154.42744Q573.3719 154.0837 572.98126 154.0837ZM572.98126 162.41182L577.6844 153.36494L578.54376 153.36494L573.85626 162.41182L572.98126 162.41182ZM576.7 160.0837Q576.7 159.16182 577.15314 158.5212Q577.6219 157.88057 578.5125 157.88057Q579.325 157.88057 579.85626 158.4587Q580.3875 159.0212 580.3875 160.1462Q580.3875 161.23994 579.84064 161.8337Q579.3094 162.41182 578.5125 162.41182Q577.7469 162.41182 577.21564 161.8337Q576.7 161.25557 576.7 160.0837ZM578.54376 158.59932Q578.1375 158.59932 577.8719 158.94307Q577.6219 159.28682 577.6219 160.19307Q577.6219 161.00557 577.8875 161.34932Q578.15314 161.69307 578.54376 161.69307Q578.9344 161.69307 579.2 161.34932Q579.46564 161.00557 579.46564 160.09932Q579.46564 159.2712 579.2 158.94307Q578.9344 158.59932 578.54376 158.59932Z" fill-rule="nonzero"/><path stroke="#757575" stroke-width="1.0" stroke-linecap="butt" d="M581.45 149.59932L454.76666 149.59932L430.57034 149.59932" fill-rule="nonzero"/><path fill="#9e9e9e" d="M432.57034 149.59932C432.57034 148.49475 431.67493 147.59932 430.57034 147.59932C429.4658 147.59932 428.57034 148.49475 428.57034 149.59932C428.57034 150.70389 429.4658 151.59932 430.57034 151.59932C431.67493 151.59932 432.57034 150.70389 432.57034 149.59932" fill-rule="nonzero"/><path fill="#1a1a1a" d="M455.825 330.59064L456.85626 330.4344Q456.95 331.0594 457.34064 331.3875Q457.7469 331.71564 458.48126 331.71564Q459.2 331.71564 459.54376 331.4344Q459.90314 331.1375 459.90314 330.73126Q459.90314 330.3719 459.59064 330.16876Q459.3719 330.02814 458.5125 329.8094Q457.35626 329.5125 456.90314 329.3094Q456.46564 329.09064 456.23126 328.71564Q455.9969 328.34064 455.9969 327.8719Q455.9969 327.46564 456.1844 327.10626Q456.3719 326.7469 456.7 326.5125Q456.95 326.34064 457.3719 326.21564Q457.79376 326.09064 458.29376 326.09064Q459.0125 326.09064 459.5594 326.3094Q460.1219 326.5125 460.3875 326.8719Q460.65314 327.23126 460.7469 327.825L459.71564 327.96564Q459.65314 327.4969 459.3094 327.23126Q458.98126 326.95 458.35626 326.95Q457.6375 326.95 457.325 327.2Q457.0125 327.4344 457.0125 327.7625Q457.0125 327.96564 457.1375 328.1219Q457.27814 328.29376 457.54376 328.40314Q457.7 328.46564 458.48126 328.66876Q459.60626 328.98126 460.04376 329.16876Q460.48126 329.35626 460.73126 329.71564Q460.98126 330.075 460.98126 330.6219Q460.98126 331.15314 460.66876 331.6219Q460.3719 332.075 459.79376 332.34064Q459.21564 332.59064 458.48126 332.59064Q457.2625 332.59064 456.6219 332.09064Q455.9969 331.575 455.825 330.59064ZM463.2469 332.45L463.2469 323.85626L464.29376 323.85626L464.29376 326.9344Q465.02814 326.09064 466.15314 326.09064Q466.85626 326.09064 467.35626 326.3719Q467.8719 326.6375 468.09064 327.1219Q468.3094 327.59064 468.3094 328.5125L468.3094 332.45L467.2625 332.45L467.2625 328.5125Q467.2625 327.71564 466.91876 327.35626Q466.575 326.9969 465.95 326.9969Q465.48126 326.9969 465.0594 327.2469Q464.65314 327.48126 464.46564 327.90314Q464.29376 328.3094 464.29376 329.04376L464.29376 332.45L463.2469 332.45ZM474.4969 330.45L475.59064 330.575Q475.34064 331.52814 474.6375 332.0594Q473.9344 332.59064 472.85626 332.59064Q471.4969 332.59064 470.6844 331.7469Q469.8875 330.90314 469.8875 329.3875Q469.8875 327.825 470.7 326.96564Q471.5125 326.09064 472.79376 326.09064Q474.04376 326.09064 474.825 326.9344Q475.6219 327.77814 475.6219 329.325Q475.6219 329.41876 475.6219 329.60626L470.98126 329.60626Q471.04376 330.6375 471.5594 331.1844Q472.075 331.71564 472.85626 331.71564Q473.4344 331.71564 473.84064 331.41876Q474.2625 331.10626 474.4969 330.45ZM471.04376 328.7469L474.5125 328.7469Q474.45 327.95 474.1219 327.5594Q473.60626 326.95 472.8094 326.95Q472.075 326.95 471.575 327.4344Q471.09064 327.91876 471.04376 328.7469ZM477.21564 332.45L477.21564 323.85626L478.27814 323.85626L478.27814 332.45L477.21564 332.45ZM482.54376 331.5125L482.7 332.4344Q482.2469 332.52814 481.90314 332.52814Q481.325 332.52814 481.0125 332.35626Q480.7 332.16876 480.5594 331.8719Q480.4344 331.575 480.4344 330.6219L480.4344 327.04376L479.66876 327.04376L479.66876 326.23126L480.4344 326.23126L480.4344 324.6844L481.48126 324.0594L481.48126 326.23126L482.54376 326.23126L482.54376 327.04376L481.48126 327.04376L481.48126 330.6844Q481.48126 331.1375 481.52814 331.2625Q481.59064 331.3875 481.71564 331.46564Q481.84064 331.54376 482.075 331.54376Q482.2625 331.54376 482.54376 331.5125ZM487.4969 330.45L488.59064 330.575Q488.34064 331.52814 487.6375 332.0594Q486.9344 332.59064 485.85626 332.59064Q484.4969 332.59064 483.6844 331.7469Q482.8875 330.90314 482.8875 329.3875Q482.8875 327.825 483.7 326.96564Q484.5125 326.09064 485.79376 326.09064Q487.04376 326.09064 487.825 326.9344Q488.6219 327.77814 488.6219 329.325Q488.6219 329.41876 488.6219 329.60626L483.98126 329.60626Q484.04376 330.6375 484.5594 331.1844Q485.075 331.71564 485.85626 331.71564Q486.4344 331.71564 486.84064 331.41876Q487.2625 331.10626 487.4969 330.45ZM484.04376 328.7469L487.5125 328.7469Q487.45 327.95 487.1219 327.5594Q486.60626 326.95 485.8094 326.95Q485.075 326.95 484.575 327.4344Q484.09064 327.91876 484.04376 328.7469ZM490.23126 332.45L490.23126 326.23126L491.1844 326.23126L491.1844 327.16876Q491.54376 326.5125 491.84064 326.3094Q492.15314 326.09064 492.52814 326.09064Q493.0594 326.09064 493.60626 326.41876L493.2469 327.40314Q492.85626 327.16876 492.48126 327.16876Q492.1219 327.16876 491.84064 327.3875Q491.575 327.59064 491.46564 327.96564Q491.27814 328.52814 491.27814 329.1844L491.27814 332.45L490.23126 332.45ZM493.825 330.59064L494.85626 330.4344Q494.95 331.0594 495.34064 331.3875Q495.7469 331.71564 496.48126 331.71564Q497.2 331.71564 497.54376 331.4344Q497.90314 331.1375 497.90314 330.73126Q497.90314 330.3719 497.59064 330.16876Q497.3719 330.02814 496.5125 329.8094Q495.35626 329.5125 494.90314 329.3094Q494.46564 329.09064 494.23126 328.71564Q493.9969 328.34064 493.9969 327.8719Q493.9969 327.46564 494.1844 327.10626Q494.3719 326.7469 494.7 326.5125Q494.95 326.34064 495.3719 326.21564Q495.79376 326.09064 496.29376 326.09064Q497.0125 326.09064 497.5594 326.3094Q498.1219 326.5125 498.3875 326.8719Q498.65314 327.23126 498.7469 327.825L497.71564 327.96564Q497.65314 327.4969 497.3094 327.23126Q496.98126 326.95 496.35626 326.95Q495.6375 326.95 495.325 327.2Q495.0125 327.4344 495.0125 327.7625Q495.0125 327.96564 495.1375 328.1219Q495.27814 328.29376 495.54376 328.40314Q495.7 328.46564 496.48126 328.66876Q497.60626 328.98126 498.04376 329.16876Q498.48126 329.35626 498.73126 329.71564Q498.98126 330.075 498.98126 330.6219Q498.98126 331.15314 498.66876 331.6219Q498.3719 332.075 497.79376 332.34064Q497.21564 332.59064 496.48126 332.59064Q495.2625 332.59064 494.6219 332.09064Q493.9969 331.575 493.825 330.59064ZM508.3094 331.6844Q507.71564 332.1844 507.16876 332.3875Q506.6375 332.59064 506.0125 332.59064Q504.98126 332.59064 504.4344 332.09064Q503.8875 331.59064 503.8875 330.8094Q503.8875 330.35626 504.09064 329.98126Q504.29376 329.59064 504.6375 329.3719Q504.98126 329.1375 505.40314 329.02814Q505.7 328.9344 506.34064 328.85626Q507.60626 328.71564 508.21564 328.4969Q508.21564 328.27814 508.21564 328.23126Q508.21564 327.575 507.91876 327.3094Q507.5125 326.96564 506.71564 326.96564Q505.98126 326.96564 505.6219 327.23126Q505.2625 327.48126 505.09064 328.1375L504.0594 327.9969Q504.2 327.34064 504.52814 326.9344Q504.85626 326.52814 505.46564 326.3094Q506.075 326.09064 506.8719 326.09064Q507.66876 326.09064 508.16876 326.27814Q508.66876 326.46564 508.90314 326.7469Q509.1375 327.02814 509.23126 327.46564Q509.27814 327.73126 509.27814 328.4344L509.27814 329.84064Q509.27814 331.3094 509.34064 331.7Q509.41876 332.09064 509.6219 332.45L508.5125 332.45Q508.35626 332.1219 508.3094 331.6844ZM508.21564 329.325Q507.6375 329.5594 506.4969 329.73126Q505.84064 329.825 505.575 329.95Q505.3094 330.0594 505.15314 330.27814Q505.0125 330.4969 505.0125 330.77814Q505.0125 331.2 505.325 331.48126Q505.65314 331.7625 506.2625 331.7625Q506.8719 331.7625 507.34064 331.4969Q507.825 331.23126 508.04376 330.7625Q508.21564 330.40314 508.21564 329.71564L508.21564 329.325ZM511.2469 332.45L511.2469 326.23126L512.1844 326.23126L512.1844 327.10626Q512.8719 326.09064 514.16876 326.09064Q514.73126 326.09064 515.2 326.29376Q515.6844 326.4969 515.91876 326.825Q516.15314 327.15314 516.2469 327.59064Q516.29376 327.8875 516.29376 328.6219L516.29376 332.45L515.2469 332.45L515.2469 328.66876Q515.2469 328.0125 515.1219 327.7Q514.9969 327.3875 514.6844 327.2Q514.3719 326.9969 513.95 326.9969Q513.27814 326.9969 512.77814 327.4344Q512.29376 327.85626 512.29376 329.04376L512.29376 332.45L511.2469 332.45ZM522.27814 332.45L522.27814 331.66876Q521.6844 332.59064 520.54376 332.59064Q519.79376 332.59064 519.16876 332.1844Q518.54376 331.7625 518.2 331.02814Q517.85626 330.29376 517.85626 329.34064Q517.85626 328.41876 518.16876 327.65314Q518.48126 326.8875 519.10626 326.4969Q519.73126 326.09064 520.4969 326.09064Q521.0594 326.09064 521.4969 326.325Q521.9344 326.5594 522.21564 326.9344L522.21564 323.85626L523.2625 323.85626L523.2625 332.45L522.27814 332.45ZM518.95 329.34064Q518.95 330.54376 519.45 331.1375Q519.95 331.71564 520.6375 331.71564Q521.325 331.71564 521.8094 331.15314Q522.29376 330.59064 522.29376 329.4344Q522.29376 328.15314 521.79376 327.5594Q521.3094 326.96564 520.59064 326.96564Q519.8875 326.96564 519.41876 327.54376Q518.95 328.10626 518.95 329.34064ZM530.54376 331.5125L530.7 332.4344Q530.2469 332.52814 529.90314 332.52814Q529.325 332.52814 529.0125 332.35626Q528.7 332.16876 528.5594 331.8719Q528.4344 331.575 528.4344 330.6219L528.4344 327.04376L527.66876 327.04376L527.66876 326.23126L528.4344 326.23126L528.4344 324.6844L529.48126 324.0594L529.48126 326.23126L530.54376 326.23126L530.54376 327.04376L529.48126 327.04376L529.48126 330.6844Q529.48126 331.1375 529.52814 331.2625Q529.59064 331.3875 529.71564 331.46564Q529.84064 331.54376 530.075 331.54376Q530.2625 331.54376 530.54376 331.5125ZM531.23126 332.45L531.23126 326.23126L532.1844 326.23126L532.1844 327.16876Q532.54376 326.5125 532.84064 326.3094Q533.15314 326.09064 533.52814 326.09064Q534.0594 326.09064 534.60626 326.41876L534.2469 327.40314Q533.85626 327.16876 533.48126 327.16876Q533.1219 327.16876 532.84064 327.3875Q532.575 327.59064 532.46564 327.96564Q532.27814 328.52814 532.27814 329.1844L532.27814 332.45L531.23126 332.45ZM539.3094 331.6844Q538.71564 332.1844 538.16876 332.3875Q537.6375 332.59064 537.0125 332.59064Q535.98126 332.59064 535.4344 332.09064Q534.8875 331.59064 534.8875 330.8094Q534.8875 330.35626 535.09064 329.98126Q535.29376 329.59064 535.6375 329.3719Q535.98126 329.1375 536.40314 329.02814Q536.7 328.9344 537.34064 328.85626Q538.60626 328.71564 539.21564 328.4969Q539.21564 328.27814 539.21564 328.23126Q539.21564 327.575 538.91876 327.3094Q538.5125 326.96564 537.71564 326.96564Q536.98126 326.96564 536.6219 327.23126Q536.2625 327.48126 536.09064 328.1375L535.0594 327.9969Q535.2 327.34064 535.52814 326.9344Q535.85626 326.52814 536.46564 326.3094Q537.075 326.09064 537.8719 326.09064Q538.66876 326.09064 539.16876 326.27814Q539.66876 326.46564 539.90314 326.7469Q540.1375 327.02814 540.23126 327.46564Q540.27814 327.73126 540.27814 328.4344L540.27814 329.84064Q540.27814 331.3094 540.34064 331.7Q540.41876 332.09064 540.6219 332.45L539.5125 332.45Q539.35626 332.1219 539.3094 331.6844ZM539.21564 329.325Q538.6375 329.5594 537.4969 329.73126Q536.84064 329.825 536.575 329.95Q536.3094 330.0594 536.15314 330.27814Q536.0125 330.4969 536.0125 330.77814Q536.0125 331.2 536.325 331.48126Q536.65314 331.7625 537.2625 331.7625Q537.8719 331.7625 538.34064 331.4969Q538.825 331.23126 539.04376 330.7625Q539.21564 330.40314 539.21564 329.71564L539.21564 329.325ZM546.27814 332.45L546.27814 331.66876Q545.6844 332.59064 544.54376 332.59064Q543.79376 332.59064 543.16876 332.1844Q542.54376 331.7625 542.2 331.02814Q541.85626 330.29376 541.85626 329.34064Q541.85626 328.41876 542.16876 327.65314Q542.48126 326.8875 543.10626 326.4969Q543.73126 326.09064 544.4969 326.09064Q545.0594 326.09064 545.4969 326.325Q545.9344 326.5594 546.21564 326.9344L546.21564 323.85626L547.2625 323.85626L547.2625 332.45L546.27814 332.45ZM542.95 329.34064Q542.95 330.54376 543.45 331.1375Q543.95 331.71564 544.6375 331.71564Q545.325 331.71564 545.8094 331.15314Q546.29376 330.59064 546.29376 329.4344Q546.29376 328.15314 545.79376 327.5594Q545.3094 326.96564 544.59064 326.96564Q543.8875 326.96564 543.41876 327.54376Q542.95 328.10626 542.95 329.34064ZM549.2469 325.075L549.2469 323.85626L550.3094 323.85626L550.3094 325.075L549.2469 325.075ZM549.2469 332.45L549.2469 326.23126L550.3094 326.23126L550.3094 332.45L549.2469 332.45ZM554.54376 331.5125L554.7 332.4344Q554.2469 332.52814 553.90314 332.52814Q553.325 332.52814 553.0125 332.35626Q552.7 332.16876 552.5594 331.8719Q552.4344 331.575 552.4344 330.6219L552.4344 327.04376L551.66876 327.04376L551.66876 326.23126L552.4344 326.23126L552.4344 324.6844L553.48126 324.0594L553.48126 326.23126L554.54376 326.23126L554.54376 327.04376L553.48126 327.04376L553.48126 330.6844Q553.48126 331.1375 553.52814 331.2625Q553.59064 331.3875 553.71564 331.46564Q553.84064 331.54376 554.075 331.54376Q554.2625 331.54376 554.54376 331.5125ZM555.2469 325.075L555.2469 323.85626L556.3094 323.85626L556.3094 325.075L555.2469 325.075ZM555.2469 332.45L555.2469 326.23126L556.3094 326.23126L556.3094 332.45L555.2469 332.45ZM557.85626 329.34064Q557.85626 327.60626 558.8094 326.77814Q559.60626 326.09064 560.7625 326.09064Q562.04376 326.09064 562.85626 326.9344Q563.6844 327.7625 563.6844 329.2469Q563.6844 330.45 563.325 331.1375Q562.96564 331.825 562.2625 332.21564Q561.575 332.59064 560.7625 332.59064Q559.46564 332.59064 558.65314 331.7625Q557.85626 330.91876 557.85626 329.34064ZM558.9344 329.34064Q558.9344 330.52814 559.45 331.1219Q559.98126 331.71564 560.7625 331.71564Q561.5594 331.71564 562.075 331.1219Q562.59064 330.52814 562.59064 329.3094Q562.59064 328.15314 562.0594 327.5594Q561.54376 326.96564 560.7625 326.96564Q559.98126 326.96564 559.45 327.5594Q558.9344 328.1375 558.9344 329.34064ZM565.2469 332.45L565.2469 326.23126L566.1844 326.23126L566.1844 327.10626Q566.8719 326.09064 568.16876 326.09064Q568.73126 326.09064 569.2 326.29376Q569.6844 326.4969 569.91876 326.825Q570.15314 327.15314 570.2469 327.59064Q570.29376 327.8875 570.29376 328.6219L570.29376 332.45L569.2469 332.45L569.2469 328.66876Q569.2469 328.0125 569.1219 327.7Q568.9969 327.3875 568.6844 327.2Q568.3719 326.9969 567.95 326.9969Q567.27814 326.9969 566.77814 327.4344Q566.29376 327.85626 566.29376 329.04376L566.29376 332.45L565.2469 332.45ZM576.3094 331.6844Q575.71564 332.1844 575.16876 332.3875Q574.6375 332.59064 574.0125 332.59064Q572.98126 332.59064 572.4344 332.09064Q571.8875 331.59064 571.8875 330.8094Q571.8875 330.35626 572.09064 329.98126Q572.29376 329.59064 572.6375 329.3719Q572.98126 329.1375 573.40314 329.02814Q573.7 328.9344 574.34064 328.85626Q575.60626 328.71564 576.21564 328.4969Q576.21564 328.27814 576.21564 328.23126Q576.21564 327.575 575.91876 327.3094Q575.5125 326.96564 574.71564 326.96564Q573.98126 326.96564 573.6219 327.23126Q573.2625 327.48126 573.09064 328.1375L572.0594 327.9969Q572.2 327.34064 572.52814 326.9344Q572.85626 326.52814 573.46564 326.3094Q574.075 326.09064 574.8719 326.09064Q575.66876 326.09064 576.16876 326.27814Q576.66876 326.46564 576.90314 326.7469Q577.1375 327.02814 577.23126 327.46564Q577.27814 327.73126 577.27814 328.4344L577.27814 329.84064Q577.27814 331.3094 577.34064 331.7Q577.41876 332.09064 577.6219 332.45L576.5125 332.45Q576.35626 332.1219 576.3094 331.6844ZM576.21564 329.325Q575.6375 329.5594 574.4969 329.73126Q573.84064 329.825 573.575 329.95Q573.3094 330.0594 573.15314 330.27814Q573.0125 330.4969 573.0125 330.77814Q573.0125 331.2 573.325 331.48126Q573.65314 331.7625 574.2625 331.7625Q574.8719 331.7625 575.34064 331.4969Q575.825 331.23126 576.04376 330.7625Q576.21564 330.40314 576.21564 329.71564L576.21564 329.325ZM579.21564 332.45L579.21564 323.85626L580.27814 323.85626L580.27814 332.45L579.21564 332.45Z" fill-rule="nonzero"/><path fill="#9e9e9e" d="M552.4969 348.4344L552.4969 349.45L546.8094 349.45Q546.8094 349.075 546.9344 348.71564Q547.15314 348.1375 547.6219 347.575Q548.10626 347.0125 549.0125 346.27814Q550.41876 345.1219 550.90314 344.45Q551.40314 343.77814 551.40314 343.1844Q551.40314 342.5594 550.95 342.1375Q550.4969 341.7 549.77814 341.7Q549.0125 341.7 548.5594 342.15314Q548.10626 342.60626 548.09064 343.41876L547.0125 343.3094Q547.1219 342.09064 547.84064 341.46564Q548.575 340.825 549.8094 340.825Q551.04376 340.825 551.7625 341.5125Q552.48126 342.2 552.48126 343.21564Q552.48126 343.73126 552.2625 344.23126Q552.0594 344.71564 551.5594 345.27814Q551.075 345.825 549.95 346.77814Q548.9969 347.575 548.71564 347.8719Q548.45 348.15314 548.27814 348.4344L552.4969 348.4344ZM553.95 347.2L555.0594 347.10626Q555.1844 347.91876 555.6219 348.325Q556.075 348.73126 556.71564 348.73126Q557.46564 348.73126 557.9969 348.15314Q558.52814 347.575 558.52814 346.6375Q558.52814 345.73126 558.0125 345.21564Q557.5125 344.6844 556.6844 344.6844Q556.1844 344.6844 555.7625 344.91876Q555.35626 345.15314 555.1219 345.5125L554.1375 345.3875L554.96564 340.98126L559.2469 340.98126L559.2469 341.98126L555.8094 341.98126L555.35626 344.29376Q556.1219 343.7469 556.96564 343.7469Q558.09064 343.7469 558.85626 344.52814Q559.6375 345.3094 559.6375 346.54376Q559.6375 347.7 558.96564 348.5594Q558.1375 349.59064 556.71564 349.59064Q555.54376 349.59064 554.79376 348.9344Q554.0594 348.27814 553.95 347.2ZM561.54376 349.45L561.54376 348.2469L562.7469 348.2469L562.7469 349.45L561.54376 349.45ZM563.95 345.21564Q563.95 343.6844 564.2625 342.7625Q564.575 341.825 565.1844 341.325Q565.8094 340.825 566.7469 340.825Q567.4344 340.825 567.95 341.10626Q568.48126 341.3875 568.825 341.91876Q569.16876 342.4344 569.35626 343.1844Q569.54376 343.9344 569.54376 345.21564Q569.54376 346.73126 569.23126 347.65314Q568.9344 348.575 568.3094 349.09064Q567.7 349.59064 566.7469 349.59064Q565.5125 349.59064 564.79376 348.7Q563.95 347.6375 563.95 345.21564ZM565.02814 345.21564Q565.02814 347.325 565.52814 348.02814Q566.02814 348.73126 566.7469 348.73126Q567.48126 348.73126 567.96564 348.02814Q568.46564 347.325 568.46564 345.21564Q568.46564 343.09064 567.96564 342.40314Q567.48126 341.7 566.73126 341.7Q566.0125 341.7 565.575 342.3094Q565.02814 343.09064 565.02814 345.21564ZM571.15314 342.91876Q571.15314 341.9969 571.60626 341.35626Q572.075 340.71564 572.95 340.71564Q573.7625 340.71564 574.29376 341.29376Q574.825 341.8719 574.825 342.98126Q574.825 344.075 574.27814 344.66876Q573.7469 345.2469 572.96564 345.2469Q572.1844 345.2469 571.66876 344.66876Q571.15314 344.09064 571.15314 342.91876ZM572.98126 341.4344Q572.59064 341.4344 572.325 341.77814Q572.075 342.1219 572.075 343.02814Q572.075 343.85626 572.325 344.2Q572.59064 344.52814 572.98126 344.52814Q573.3875 344.52814 573.6375 344.1844Q573.90314 343.84064 573.90314 342.95Q573.90314 342.10626 573.6375 341.77814Q573.3719 341.4344 572.98126 341.4344ZM572.98126 349.7625L577.6844 340.71564L578.54376 340.71564L573.85626 349.7625L572.98126 349.7625ZM576.7 347.4344Q576.7 346.5125 577.15314 345.8719Q577.6219 345.23126 578.5125 345.23126Q579.325 345.23126 579.85626 345.8094Q580.3875 346.3719 580.3875 347.4969Q580.3875 348.59064 579.84064 349.1844Q579.3094 349.7625 578.5125 349.7625Q577.7469 349.7625 577.21564 349.1844Q576.7 348.60626 576.7 347.4344ZM578.54376 345.95Q578.1375 345.95 577.8719 346.29376Q577.6219 346.6375 577.6219 347.54376Q577.6219 348.35626 577.8875 348.7Q578.15314 349.04376 578.54376 349.04376Q578.9344 349.04376 579.2 348.7Q579.46564 348.35626 579.46564 347.45Q579.46564 346.6219 579.2 346.29376Q578.9344 345.95 578.54376 345.95Z" fill-rule="nonzero"/><path stroke="#757575" stroke-width="1.0" stroke-linecap="butt" d="M581.45 336.95L454.76666 336.95L300.0 345.01166" fill-rule="nonzero"/><path fill="#9e9e9e" d="M302.0 345.01166C302.0 343.9071 301.10458 343.01166 300.0 343.01166C298.89542 343.01166 298.0 343.9071 298.0 345.01166C298.0 346.11624 298.89542 347.01166 300.0 347.01166C301.10458 347.01166 302.0 346.11624 302.0 345.01166" fill-rule="nonzero"/><path fill="#757575" d="M22.596874 37.55L18.8 23.2375L20.7375 23.2375L22.909374 32.6125Q23.26875 34.096874 23.51875 35.55Q24.065624 33.253124 24.159374 32.89375L26.89375 23.2375L29.175 23.2375L31.221874 30.471874Q32.003124 33.175 32.346874 35.55Q32.6125 34.190624 33.05 32.425L35.3 23.2375L37.20625 23.2375L33.284374 37.55L31.45625 37.55L28.440624 26.64375Q28.05 25.26875 27.9875 24.95625Q27.753124 25.940624 27.565624 26.64375L24.534374 37.55L22.596874 37.55ZM38.8625 37.55L38.8625 23.2375L40.628124 23.2375L40.628124 28.3625Q41.8625 26.940624 43.7375 26.940624Q44.878124 26.940624 45.721874 27.39375Q46.58125 27.846874 46.940624 28.659374Q47.315624 29.45625 47.315624 30.971874L47.315624 37.55L45.565624 37.55L45.565624 30.971874Q45.565624 29.659374 44.9875 29.065624Q44.409374 28.45625 43.378124 28.45625Q42.596874 28.45625 41.89375 28.8625Q41.20625 29.26875 40.909374 29.971874Q40.628124 30.659374 40.628124 31.878124L40.628124 37.55L38.8625 37.55ZM55.971874 34.20625L57.784374 34.440624Q57.3625 36.01875 56.190624 36.909374Q55.034374 37.784374 53.221874 37.784374Q50.95625 37.784374 49.6125 36.39375Q48.284374 34.9875 48.284374 32.45625Q48.284374 29.83125 49.628124 28.39375Q50.971874 26.940624 53.128124 26.940624Q55.20625 26.940624 56.51875 28.3625Q57.846874 29.76875 57.846874 32.346874Q57.846874 32.503124 57.83125 32.815624L50.096874 32.815624Q50.190624 34.51875 51.065624 35.425Q51.940624 36.33125 53.2375 36.33125Q54.20625 36.33125 54.878124 35.83125Q55.565624 35.315624 55.971874 34.20625ZM50.190624 31.3625L55.9875 31.3625Q55.878124 30.065624 55.33125 29.409374Q54.4875 28.39375 53.14375 28.39375Q51.940624 28.39375 51.1125 29.20625Q50.284374 30.003124 50.190624 31.3625ZM59.846874 37.55L59.846874 27.175L61.425 27.175L61.425 28.753124Q62.034374 27.64375 62.55 27.3Q63.065624 26.940624 63.675 26.940624Q64.56563 26.940624 65.4875 27.503124L64.87813 29.14375Q64.2375 28.753124 63.596874 28.753124Q63.01875 28.753124 62.55 29.1125Q62.096874 29.45625 61.89375 30.065624Q61.6125 31.003124 61.6125 32.1125L61.6125 37.55L59.846874 37.55ZM73.97188 34.20625L75.78438 34.440624Q75.3625 36.01875 74.19063 36.909374Q73.03438 37.784374 71.22188 37.784374Q68.95625 37.784374 67.6125 36.39375Q66.28438 34.9875 66.28438 32.45625Q66.28438 29.83125 67.62813 28.39375Q68.97188 26.940624 71.12813 26.940624Q73.20625 26.940624 74.51875 28.3625Q75.84688 29.76875 75.84688 32.346874Q75.84688 32.503124 75.83125 32.815624L68.09688 32.815624Q68.19063 34.51875 69.06563 35.425Q69.94063 36.33125 71.2375 36.33125Q72.20625 36.33125 72.87813 35.83125Q73.56563 35.315624 73.97188 34.20625ZM68.19063 31.3625L73.9875 31.3625Q73.87813 30.065624 73.33125 29.409374Q72.4875 28.39375 71.14375 28.39375Q69.94063 28.39375 69.1125 29.20625Q68.28438 30.003124 68.19063 31.3625ZM83.8625 41.51875L83.8625 27.175L85.47188 27.175L85.47188 28.51875Q86.03438 27.7375 86.7375 27.346874Q87.45625 26.940624 88.47188 26.940624Q89.8 26.940624 90.81563 27.628124Q91.83125 28.315624 92.34688 29.565624Q92.87813 30.8 92.87813 32.284374Q92.87813 33.878124 92.3 35.159374Q91.7375 36.425 90.64375 37.1125Q89.55 37.784374 88.34688 37.784374Q87.47188 37.784374 86.76875 37.409374Q86.08125 37.034374 85.62813 36.471874L85.62813 41.51875L83.8625 41.51875ZM85.45625 32.425Q85.45625 34.425 86.26875 35.378124Q87.08125 36.33125 88.2375 36.33125Q89.40938 36.33125 90.2375 35.346874Q91.08125 34.3625 91.08125 32.26875Q91.08125 30.3 90.25313 29.315624Q89.44063 28.315624 88.31563 28.315624Q87.19063 28.315624 86.31563 29.378124Q85.45625 30.425 85.45625 32.425ZM101.97188 34.20625L103.78438 34.440624Q103.3625 36.01875 102.19063 36.909374Q101.03438 37.784374 99.22188 37.784374Q96.95625 37.784374 95.6125 36.39375Q94.28438 34.9875 94.28438 32.45625Q94.28438 29.83125 95.62813 28.39375Q96.97188 26.940624 99.12813 26.940624Q101.20625 26.940624 102.51875 28.3625Q103.84688 29.76875 103.84688 32.346874Q103.84688 32.503124 103.83125 32.815624L96.09688 32.815624Q96.19063 34.51875 97.06563 35.425Q97.94063 36.33125 99.2375 36.33125Q100.20625 36.33125 100.87813 35.83125Q101.56563 35.315624 101.97188 34.20625ZM96.19063 31.3625L101.9875 31.3625Q101.87813 30.065624 101.33125 29.409374Q100.4875 28.39375 99.14375 28.39375Q97.94063 28.39375 97.1125 29.20625Q96.28438 30.003124 96.19063 31.3625ZM105.22188 32.3625Q105.22188 29.4875 106.81563 28.096874Q108.15938 26.940624 110.08125 26.940624Q112.22188 26.940624 113.56563 28.346874Q114.925 29.753124 114.925 32.221874Q114.925 34.221874 114.33125 35.378124Q113.7375 36.51875 112.58125 37.159374Q111.44063 37.784374 110.08125 37.784374Q107.89375 37.784374 106.55 36.39375Q105.22188 34.9875 105.22188 32.3625ZM107.01875 32.3625Q107.01875 34.3625 107.87813 35.346874Q108.75313 36.33125 110.08125 36.33125Q111.39375 36.33125 112.25313 35.346874Q113.12813 34.346874 113.12813 32.3Q113.12813 30.378124 112.25313 29.39375Q111.37813 28.39375 110.08125 28.39375Q108.75313 28.39375 107.87813 29.39375Q107.01875 30.378124 107.01875 32.3625ZM116.8625 41.51875L116.8625 27.175L118.47188 27.175L118.47188 28.51875Q119.03438 27.7375 119.7375 27.346874Q120.45625 26.940624 121.47188 26.940624Q122.8 26.940624 123.81563 27.628124Q124.83125 28.315624 125.34688 29.565624Q125.87813 30.8 125.87813 32.284374Q125.87813 33.878124 125.3 35.159374Q124.7375 36.425 123.64375 37.1125Q122.55 37.784374 121.34688 37.784374Q120.47188 37.784374 119.76875 37.409374Q119.08125 37.034374 118.62813 36.471874L118.62813 41.51875L116.8625 41.51875ZM118.45625 32.425Q118.45625 34.425 119.26875 35.378124Q120.08125 36.33125 121.2375 36.33125Q122.40938 36.33125 123.2375 35.346874Q124.08125 34.3625 124.08125 32.26875Q124.08125 30.3 123.25313 29.315624Q122.44063 28.315624 121.31563 28.315624Q120.19063 28.315624 119.31563 29.378124Q118.45625 30.425 118.45625 32.425ZM127.83125 37.55L127.83125 23.2375L129.58125 23.2375L129.58125 37.55L127.83125 37.55ZM138.97188 34.20625L140.78438 34.440624Q140.3625 36.01875 139.19063 36.909374Q138.03438 37.784374 136.22188 37.784374Q133.95625 37.784374 132.6125 36.39375Q131.28438 34.9875 131.28438 32.45625Q131.28438 29.83125 132.62813 28.39375Q133.97188 26.940624 136.12813 26.940624Q138.20625 26.940624 139.51875 28.3625Q140.84688 29.76875 140.84688 32.346874Q140.84688 32.503124 140.83125 32.815624L133.09688 32.815624Q133.19063 34.51875 134.06563 35.425Q134.94063 36.33125 136.2375 36.33125Q137.20625 36.33125 137.87813 35.83125Q138.56563 35.315624 138.97188 34.20625ZM133.19063 31.3625L138.9875 31.3625Q138.87813 30.065624 138.33125 29.409374Q137.4875 28.39375 136.14375 28.39375Q134.94063 28.39375 134.1125 29.20625Q133.28438 30.003124 133.19063 31.3625ZM148.55 38.409374L150.25313 38.659374Q150.3625 39.45625 150.84688 39.815624Q151.50313 40.3 152.64375 40.3Q153.8625 40.3 154.51875 39.815624Q155.19063 39.33125 155.425 38.45625Q155.56563 37.909374 155.55 36.190624Q154.39375 37.55 152.675 37.55Q150.53438 37.55 149.3625 36.003124Q148.19063 34.45625 148.19063 32.3Q148.19063 30.815624 148.72188 29.565624Q149.26875 28.315624 150.28438 27.628124Q151.31563 26.940624 152.69063 26.940624Q154.51875 26.940624 155.72188 28.425L155.72188 27.175L157.33125 27.175L157.33125 36.14375Q157.33125 38.565624 156.83125 39.565624Q156.34688 40.58125 155.26875 41.159374Q154.20625 41.753124 152.64375 41.753124Q150.8 41.753124 149.64375 40.925Q148.50313 40.096874 148.55 38.409374ZM150.00313 32.175Q150.00313 34.221874 150.81563 35.159374Q151.62813 36.096874 152.84688 36.096874Q154.05 36.096874 154.8625 35.159374Q155.69063 34.221874 155.69063 32.2375Q155.69063 30.33125 154.84688 29.3625Q154.00313 28.39375 152.81563 28.39375Q151.64375 28.39375 150.81563 29.346874Q150.00313 30.3 150.00313 32.175ZM159.22188 32.3625Q159.22188 29.4875 160.81563 28.096874Q162.15938 26.940624 164.08125 26.940624Q166.22188 26.940624 167.56563 28.346874Q168.925 29.753124 168.925 32.221874Q168.925 34.221874 168.33125 35.378124Q167.7375 36.51875 166.58125 37.159374Q165.44063 37.784374 164.08125 37.784374Q161.89375 37.784374 160.55 36.39375Q159.22188 34.9875 159.22188 32.3625ZM161.01875 32.3625Q161.01875 34.3625 161.87813 35.346874Q162.75313 36.33125 164.08125 36.33125Q165.39375 36.33125 166.25313 35.346874Q167.12813 34.346874 167.12813 32.3Q167.12813 30.378124 166.25313 29.39375Q165.37813 28.39375 164.08125 28.39375Q162.75313 28.39375 161.87813 29.39375Q161.01875 30.378124 161.01875 32.3625ZM178.78438 37.55L175.6125 27.175L177.425 27.175L179.08125 33.159374L179.69063 35.39375Q179.7375 35.221874 180.22188 33.253124L181.87813 27.175L183.69063 27.175L185.2375 33.190624L185.75313 35.175L186.34688 33.175L188.12813 27.175L189.83125 27.175L186.59688 37.55L184.76875 37.55L183.1125 31.33125L182.72188 29.565624L180.6125 37.55L178.78438 37.55ZM191.8625 37.55L191.8625 23.2375L193.62813 23.2375L193.62813 28.3625Q194.8625 26.940624 196.7375 26.940624Q197.87813 26.940624 198.72188 27.39375Q199.58125 27.846874 199.94063 28.659374Q200.31563 29.45625 200.31563 30.971874L200.31563 37.55L198.56563 37.55L198.56563 30.971874Q198.56563 29.659374 197.9875 29.065624Q197.40938 28.45625 196.37813 28.45625Q195.59688 28.45625 194.89375 28.8625Q194.20625 29.26875 193.90938 29.971874Q193.62813 30.659374 193.62813 31.878124L193.62813 37.55L191.8625 37.55ZM208.97188 34.20625L210.78438 34.440624Q210.3625 36.01875 209.19063 36.909374Q208.03438 37.784374 206.22188 37.784374Q203.95625 37.784374 202.6125 36.39375Q201.28438 34.9875 201.28438 32.45625Q201.28438 29.83125 202.62813 28.39375Q203.97188 26.940624 206.12813 26.940624Q208.20625 26.940624 209.51875 28.3625Q210.84688 29.76875 210.84688 32.346874Q210.84688 32.503124 210.83125 32.815624L203.09688 32.815624Q203.19063 34.51875 204.06563 35.425Q204.94063 36.33125 206.2375 36.33125Q207.20625 36.33125 207.87813 35.83125Q208.56563 35.315624 208.97188 34.20625ZM203.19063 31.3625L208.9875 31.3625Q208.87813 30.065624 208.33125 29.409374Q207.4875 28.39375 206.14375 28.39375Q204.94063 28.39375 204.1125 29.20625Q203.28438 30.003124 203.19063 31.3625ZM212.8625 37.55L212.8625 27.175L214.45625 27.175L214.45625 28.659374Q215.59688 26.940624 217.75313 26.940624Q218.69063 26.940624 219.47188 27.284374Q220.26875 27.6125 220.65938 28.159374Q221.05 28.70625 221.20625 29.45625Q221.3 29.95625 221.3 31.175L221.3 37.55L219.53438 37.55L219.53438 31.2375Q219.53438 30.159374 219.33125 29.628124Q219.12813 29.096874 218.59688 28.784374Q218.08125 28.471874 217.37813 28.471874Q216.25313 28.471874 215.44063 29.190624Q214.62813 29.89375 214.62813 31.878124L214.62813 37.55L212.8625 37.55ZM232.70625 35.971874L232.95625 37.534374Q232.22188 37.690624 231.62813 37.690624Q230.675 37.690624 230.14375 37.39375Q229.62813 37.08125 229.40938 36.596874Q229.19063 36.096874 229.19063 34.51875L229.19063 28.55L227.90938 28.55L227.90938 27.175L229.19063 27.175L229.19063 24.6125L230.94063 23.55L230.94063 27.175L232.70625 27.175L232.70625 28.55L230.94063 28.55L230.94063 34.6125Q230.94063 35.3625 231.03438 35.58125Q231.12813 35.784374 231.33125 35.925Q231.55 36.05 231.94063 36.05Q232.22188 36.05 232.70625 35.971874ZM234.8625 37.55L234.8625 23.2375L236.62813 23.2375L236.62813 28.3625Q237.8625 26.940624 239.7375 26.940624Q240.87813 26.940624 241.72188 27.39375Q242.58125 27.846874 242.94063 28.659374Q243.31563 29.45625 243.31563 30.971874L243.31563 37.55L241.56563 37.55L241.56563 30.971874Q241.56563 29.659374 240.9875 29.065624Q240.40938 28.45625 239.37813 28.45625Q238.59688 28.45625 237.89375 28.8625Q237.20625 29.26875 236.90938 29.971874Q236.62813 30.659374 236.62813 31.878124L236.62813 37.55L234.8625 37.55ZM251.97188 34.20625L253.78438 34.440624Q253.3625 36.01875 252.19063 36.909374Q251.03438 37.784374 249.22188 37.784374Q246.95625 37.784374 245.6125 36.39375Q244.28438 34.9875 244.28438 32.45625Q244.28438 29.83125 245.62813 28.39375Q246.97188 26.940624 249.12813 26.940624Q251.20625 26.940624 252.51875 28.3625Q253.84688 29.76875 253.84688 32.346874Q253.84688 32.503124 253.83125 32.815624L246.09688 32.815624Q246.19063 34.51875 247.06563 35.425Q247.94063 36.33125 249.2375 36.33125Q250.20625 36.33125 250.87813 35.83125Q251.56563 35.315624 251.97188 34.20625ZM246.19063 31.3625L251.9875 31.3625Q251.87813 30.065624 251.33125 29.409374Q250.4875 28.39375 249.14375 28.39375Q247.94063 28.39375 247.1125 29.20625Q246.28438 30.003124 246.19063 31.3625ZM255.87813 25.253124L255.87813 23.2375L257.64374 23.2375L257.64374 25.253124L255.87813 25.253124ZM255.87813 37.55L255.87813 27.175L257.64374 27.175L257.64374 37.55L255.87813 37.55ZM259.84686 37.55L259.84686 27.175L261.425 27.175L261.425 28.753124Q262.03436 27.64375 262.55 27.3Q263.0656 26.940624 263.675 26.940624Q264.5656 26.940624 265.4875 27.503124L264.8781 29.14375Q264.2375 28.753124 263.59686 28.753124Q263.01874 28.753124 262.55 29.1125Q262.09686 29.45625 261.89374 30.065624Q261.6125 31.003124 261.6125 32.1125L261.6125 37.55L259.84686 37.55ZM279.97186 34.20625L281.78436 34.440624Q281.3625 36.01875 280.1906 36.909374Q279.03436 37.784374 277.22186 37.784374Q274.95624 37.784374 273.6125 36.39375Q272.28436 34.9875 272.28436 32.45625Q272.28436 29.83125 273.6281 28.39375Q274.97186 26.940624 277.1281 26.940624Q279.20624 26.940624 280.51874 28.3625Q281.84686 29.76875 281.84686 32.346874Q281.84686 32.503124 281.83124 32.815624L274.09686 32.815624Q274.1906 34.51875 275.0656 35.425Q275.9406 36.33125 277.2375 36.33125Q278.20624 36.33125 278.8781 35.83125Q279.5656 35.315624 279.97186 34.20625ZM274.1906 31.3625L279.9875 31.3625Q279.8781 30.065624 279.33124 29.409374Q278.4875 28.39375 277.14374 28.39375Q275.9406 28.39375 275.1125 29.20625Q274.28436 30.003124 274.1906 31.3625ZM286.7531 37.55L282.8 27.175L284.65936 27.175L286.89374 33.39375Q287.2531 34.39375 287.55 35.471874Q287.78436 34.659374 288.20624 33.503124L290.5031 27.175L292.3156 27.175L288.39374 37.55L286.7531 37.55ZM292.8781 25.253124L292.8781 23.2375L294.64374 23.2375L294.64374 25.253124L292.8781 25.253124ZM292.8781 37.55L292.8781 27.175L294.64374 27.175L294.64374 37.55L292.8781 37.55ZM303.64374 33.753124L305.3625 33.971874Q305.08124 35.76875 303.90936 36.784374Q302.7531 37.784374 301.05 37.784374Q298.925 37.784374 297.6281 36.39375Q296.33124 35.003124 296.33124 32.409374Q296.33124 30.721874 296.8781 29.471874Q297.4406 28.20625 298.58124 27.58125Q299.72186 26.940624 301.0656 26.940624Q302.7531 26.940624 303.8156 27.8Q304.89374 28.659374 305.20624 30.221874L303.4875 30.4875Q303.2531 29.440624 302.6281 28.925Q302.0031 28.39375 301.1281 28.39375Q299.8 28.39375 298.97186 29.346874Q298.14374 30.3 298.14374 32.346874Q298.14374 34.440624 298.9406 35.39375Q299.7375 36.33125 301.03436 36.33125Q302.0656 36.33125 302.7531 35.70625Q303.45624 35.065624 303.64374 33.753124ZM310.70624 35.971874L310.95624 37.534374Q310.22186 37.690624 309.6281 37.690624Q308.675 37.690624 308.14374 37.39375Q307.6281 37.08125 307.40936 36.596874Q307.1906 36.096874 307.1906 34.51875L307.1906 28.55L305.90936 28.55L305.90936 27.175L307.1906 27.175L307.1906 24.6125L308.9406 23.55L308.9406 27.175L310.70624 27.175L310.70624 28.55L308.9406 28.55L308.9406 34.6125Q308.9406 35.3625 309.03436 35.58125Q309.1281 35.784374 309.33124 35.925Q309.55 36.05 309.9406 36.05Q310.22186 36.05 310.70624 35.971874ZM319.97186 34.20625L321.78436 34.440624Q321.3625 36.01875 320.1906 36.909374Q319.03436 37.784374 317.22186 37.784374Q314.95624 37.784374 313.6125 36.39375Q312.28436 34.9875 312.28436 32.45625Q312.28436 29.83125 313.6281 28.39375Q314.97186 26.940624 317.1281 26.940624Q319.20624 26.940624 320.51874 28.3625Q321.84686 29.76875 321.84686 32.346874Q321.84686 32.503124 321.83124 32.815624L314.09686 32.815624Q314.1906 34.51875 315.0656 35.425Q315.9406 36.33125 317.2375 36.33125Q318.20624 36.33125 318.8781 35.83125Q319.5656 35.315624 319.97186 34.20625ZM314.1906 31.3625L319.9875 31.3625Q319.8781 30.065624 319.33124 29.409374Q318.4875 28.39375 317.14374 28.39375Q315.9406 28.39375 315.1125 29.20625Q314.28436 30.003124 314.1906 31.3625ZM330.59686 37.55L330.59686 36.2375Q329.6125 37.784374 327.6906 37.784374Q326.45624 37.784374 325.40936 37.096874Q324.3781 36.409374 323.8 35.190624Q323.2375 33.971874 323.2375 32.378124Q323.2375 30.815624 323.7531 29.55Q324.26874 28.284374 325.3 27.6125Q326.34686 26.940624 327.6125 26.940624Q328.55 26.940624 329.28436 27.346874Q330.01874 27.7375 330.4875 28.3625L330.4875 23.2375L332.22186 23.2375L332.22186 37.55L330.59686 37.55ZM325.03436 32.378124Q325.03436 34.3625 325.8781 35.346874Q326.72186 36.33125 327.8625 36.33125Q329.01874 36.33125 329.8156 35.39375Q330.6281 34.45625 330.6281 32.51875Q330.6281 30.39375 329.8 29.39375Q328.9875 28.39375 327.78436 28.39375Q326.6125 28.39375 325.8156 29.3625Q325.03436 30.315624 325.03436 32.378124ZM340.22186 32.3625Q340.22186 29.4875 341.8156 28.096874Q343.15936 26.940624 345.08124 26.940624Q347.22186 26.940624 348.5656 28.346874Q349.925 29.753124 349.925 32.221874Q349.925 34.221874 349.33124 35.378124Q348.7375 36.51875 347.58124 37.159374Q346.4406 37.784374 345.08124 37.784374Q342.89374 37.784374 341.55 36.39375Q340.22186 34.9875 340.22186 32.3625ZM342.01874 32.3625Q342.01874 34.3625 342.8781 35.346874Q343.7531 36.33125 345.08124 36.33125Q346.39374 36.33125 347.2531 35.346874Q348.1281 34.346874 348.1281 32.3Q348.1281 30.378124 347.2531 29.39375Q346.3781 28.39375 345.08124 28.39375Q343.7531 28.39375 342.8781 29.39375Q342.01874 30.378124 342.01874 32.3625ZM358.65936 37.55L358.65936 36.01875Q357.45624 37.784374 355.3781 37.784374Q354.45624 37.784374 353.65936 37.440624Q352.8625 37.08125 352.47186 36.55Q352.09686 36.01875 351.9406 35.2375Q351.83124 34.721874 351.83124 33.596874L351.83124 27.175L353.58124 27.175L353.58124 32.925Q353.58124 34.3 353.6906 34.784374Q353.8625 35.471874 354.39374 35.878124Q354.9406 36.26875 355.72186 36.26875Q356.51874 36.26875 357.20624 35.8625Q357.90936 35.45625 358.1906 34.76875Q358.4875 34.065624 358.4875 32.7375L358.4875 27.175L360.2375 27.175L360.2375 37.55L358.65936 37.55ZM365.70624 35.971874L365.95624 37.534374Q365.22186 37.690624 364.6281 37.690624Q363.675 37.690624 363.14374 37.39375Q362.6281 37.08125 362.40936 36.596874Q362.1906 36.096874 362.1906 34.51875L362.1906 28.55L360.90936 28.55L360.90936 27.175L362.1906 27.175L362.1906 24.6125L363.9406 23.55L363.9406 27.175L365.70624 27.175L365.70624 28.55L363.9406 28.55L363.9406 34.6125Q363.9406 35.3625 364.03436 35.58125Q364.1281 35.784374 364.33124 35.925Q364.55 36.05 364.9406 36.05Q365.22186 36.05 365.70624 35.971874ZM373.22186 32.3625Q373.22186 29.4875 374.8156 28.096874Q376.15936 26.940624 378.08124 26.940624Q380.22186 26.940624 381.5656 28.346874Q382.925 29.753124 382.925 32.221874Q382.925 34.221874 382.33124 35.378124Q381.7375 36.51875 380.58124 37.159374Q379.4406 37.784374 378.08124 37.784374Q375.89374 37.784374 374.55 36.39375Q373.22186 34.9875 373.22186 32.3625ZM375.01874 32.3625Q375.01874 34.3625 375.8781 35.346874Q376.7531 36.33125 378.08124 36.33125Q379.39374 36.33125 380.2531 35.346874Q381.1281 34.346874 381.1281 32.3Q381.1281 30.378124 380.2531 29.39375Q379.3781 28.39375 378.08124 28.39375Q376.7531 28.39375 375.8781 29.39375Q375.01874 30.378124 375.01874 32.3625ZM385.28436 37.55L385.28436 28.55L383.7375 28.55L383.7375 27.175L385.28436 27.175L385.28436 26.08125Q385.28436 25.034374 385.47186 24.51875Q385.72186 23.83125 386.3625 23.409374Q387.0031 22.9875 388.15936 22.9875Q388.90936 22.9875 389.8 23.159374L389.53436 24.690624Q388.9875 24.596874 388.5031 24.596874Q387.70624 24.596874 387.3625 24.940624Q387.03436 25.284374 387.03436 26.221874L387.03436 27.175L389.0656 27.175L389.0656 28.55L387.03436 28.55L387.03436 37.55L385.28436 37.55ZM396.5031 25.1125L396.5031 23.425L405.76874 23.425L405.76874 24.784374Q404.39374 26.2375 403.05 28.659374Q401.70624 31.065624 400.9875 33.6125Q400.45624 35.409374 400.3 37.55L398.5031 37.55Q398.53436 35.8625 399.15936 33.471874Q399.8 31.08125 400.9875 28.8625Q402.175 26.628124 403.5031 25.1125L396.5031 25.1125ZM416.6125 35.8625L416.6125 37.55L407.15936 37.55Q407.14374 36.909374 407.3625 36.33125Q407.72186 35.3625 408.51874 34.425Q409.3156 33.4875 410.8156 32.253124Q413.15936 30.346874 413.97186 29.2375Q414.8 28.1125 414.8 27.1125Q414.8 26.065624 414.05 25.346874Q413.3 24.628124 412.09686 24.628124Q410.83124 24.628124 410.0656 25.39375Q409.3 26.159374 409.3 27.503124L407.4875 27.315624Q407.675 25.3 408.8781 24.2375Q410.09686 23.175 412.14374 23.175Q414.1906 23.175 415.39374 24.315624Q416.59686 25.45625 416.59686 27.14375Q416.59686 28.003124 416.2375 28.846874Q415.89374 29.675 415.08124 30.596874Q414.26874 31.503124 412.3781 33.1125Q410.78436 34.440624 410.33124 34.909374Q409.89374 35.378124 409.59686 35.8625L416.6125 35.8625ZM424.8625 41.51875L424.8625 27.175L426.47186 27.175L426.47186 28.51875Q427.03436 27.7375 427.7375 27.346874Q428.45624 26.940624 429.47186 26.940624Q430.8 26.940624 431.8156 27.628124Q432.83124 28.315624 433.34686 29.565624Q433.8781 30.8 433.8781 32.284374Q433.8781 33.878124 433.3 35.159374Q432.7375 36.425 431.64374 37.1125Q430.55 37.784374 429.34686 37.784374Q428.47186 37.784374 427.76874 37.409374Q427.08124 37.034374 426.6281 36.471874L426.6281 41.51875L424.8625 41.51875ZM426.45624 32.425Q426.45624 34.425 427.26874 35.378124Q428.08124 36.33125 429.2375 36.33125Q430.40936 36.33125 431.2375 35.346874Q432.08124 34.3625 432.08124 32.26875Q432.08124 30.3 431.2531 29.315624Q430.4406 28.315624 429.3156 28.315624Q428.1906 28.315624 427.3156 29.378124Q426.45624 30.425 426.45624 32.425ZM442.97186 34.20625L444.78436 34.440624Q444.3625 36.01875 443.1906 36.909374Q442.03436 37.784374 440.22186 37.784374Q437.95624 37.784374 436.6125 36.39375Q435.28436 34.9875 435.28436 32.45625Q435.28436 29.83125 436.6281 28.39375Q437.97186 26.940624 440.1281 26.940624Q442.20624 26.940624 443.51874 28.3625Q444.84686 29.76875 444.84686 32.346874Q444.84686 32.503124 444.83124 32.815624L437.09686 32.815624Q437.1906 34.51875 438.0656 35.425Q438.9406 36.33125 440.2375 36.33125Q441.20624 36.33125 441.8781 35.83125Q442.5656 35.315624 442.97186 34.20625ZM437.1906 31.3625L442.9875 31.3625Q442.8781 30.065624 442.33124 29.409374Q441.4875 28.39375 440.14374 28.39375Q438.9406 28.39375 438.1125 29.20625Q437.28436 30.003124 437.1906 31.3625ZM446.22186 32.3625Q446.22186 29.4875 447.8156 28.096874Q449.15936 26.940624 451.08124 26.940624Q453.22186 26.940624 454.5656 28.346874Q455.925 29.753124 455.925 32.221874Q455.925 34.221874 455.33124 35.378124Q454.7375 36.51875 453.58124 37.159374Q452.4406 37.784374 451.08124 37.784374Q448.89374 37.784374 447.55 36.39375Q446.22186 34.9875 446.22186 32.3625ZM448.01874 32.3625Q448.01874 34.3625 448.8781 35.346874Q449.7531 36.33125 451.08124 36.33125Q452.39374 36.33125 453.2531 35.346874Q454.1281 34.346874 454.1281 32.3Q454.1281 30.378124 453.2531 29.39375Q452.3781 28.39375 451.08124 28.39375Q449.7531 28.39375 448.8781 29.39375Q448.01874 30.378124 448.01874 32.3625ZM457.8625 41.51875L457.8625 27.175L459.47186 27.175L459.47186 28.51875Q460.03436 27.7375 460.7375 27.346874Q461.45624 26.940624 462.47186 26.940624Q463.8 26.940624 464.8156 27.628124Q465.83124 28.315624 466.34686 29.565624Q466.8781 30.8 466.8781 32.284374Q466.8781 33.878124 466.3 35.159374Q465.7375 36.425 464.64374 37.1125Q463.55 37.784374 462.34686 37.784374Q461.47186 37.784374 460.76874 37.409374Q460.08124 37.034374 459.6281 36.471874L459.6281 41.51875L457.8625 41.51875ZM459.45624 32.425Q459.45624 34.425 460.26874 35.378124Q461.08124 36.33125 462.2375 36.33125Q463.40936 36.33125 464.2375 35.346874Q465.08124 34.3625 465.08124 32.26875Q465.08124 30.3 464.2531 29.315624Q463.4406 28.315624 462.3156 28.315624Q461.1906 28.315624 460.3156 29.378124Q459.45624 30.425 459.45624 32.425ZM468.83124 37.55L468.83124 23.2375L470.58124 23.2375L470.58124 37.55L468.83124 37.55ZM479.97186 34.20625L481.78436 34.440624Q481.3625 36.01875 480.1906 36.909374Q479.03436 37.784374 477.22186 37.784374Q474.95624 37.784374 473.6125 36.39375Q472.28436 34.9875 472.28436 32.45625Q472.28436 29.83125 473.6281 28.39375Q474.97186 26.940624 477.1281 26.940624Q479.20624 26.940624 480.51874 28.3625Q481.84686 29.76875 481.84686 32.346874Q481.84686 32.503124 481.83124 32.815624L474.09686 32.815624Q474.1906 34.51875 475.0656 35.425Q475.9406 36.33125 477.2375 36.33125Q478.20624 36.33125 478.8781 35.83125Q479.5656 35.315624 479.97186 34.20625ZM474.1906 31.3625L479.9875 31.3625Q479.8781 30.065624 479.33124 29.409374Q478.4875 28.39375 477.14374 28.39375Q475.9406 28.39375 475.1125 29.20625Q474.28436 30.003124 474.1906 31.3625Z" fill-rule="nonzero"/></svg>